# xmcd
#
# Track frame offsets:
#	150
#	14600
#	35285
#	48973
#	80931
#	100708
#	126755
#	145123
#	176384
#	195208
#	220765
#	238405
#
# Disc length: 3350 seconds
#
# Revision: 0
# Processed by: cddbd v1.5.2PL0 Copyright (c) Steve Scherf et al.
# Submitted via: dBpowerAMP V4.0
#
DISCID=9e0d140c
DTITLE=Little Smokey Smothers - &Elvin Bishop Chicago Blues Buddies
DYEAR=2009
DGENRE=Blues
TTITLE0=Remembering
TTITLE1=Talkin'Blues
TTITLE2=Smokey Shuffle
TTITLE3=Crack Head Woman
TTITLE4=Mother-In-Law Blues
TTITLE5=You're Gonna Miss Me
TTITLE6=You Don't Love Me
TTITLE7=Interview
TTITLE8=Roll Your Moneymaker
TTITLE9=Little Red Rooaster
TTITLE10=Hello,Baby
TTITLE11=Bye Bye Baby
EXTD=
EXTT0=
EXTT1=
EXTT2=
EXTT3=
EXTT4=
EXTT5=
EXTT6=
EXTT7=
EXTT8=
EXTT9=
EXTT10=
EXTT11=
PLAYORDER=
